General

Format                           : MPEG-4
Format profile                   : Base Media
Codec ID                         : isom
File size                        : 62.6 MiB - 80 MiB
Duration                         : 23mn 44s
Overall bit rate                 : 369 Kbps
Encoded date                     : UTC 2011-12-22 17:30:18
Tagged date                      : UTC 2011-12-22 17:30:18

Video

ID                               : 1
Format                           : AVC
Format/Info                      : Advanced Video Codec
Format profile                   : Main@L3.0
Format settings, CABAC           : Yes
Format settings, ReFrames        : 4 frames
Format settings, GOP             : M=4, N=30
Codec ID                         : avc1
Codec ID/Info                    : Advanced Video Coding
Duration                         : 23mn 44s
Bit rate mode                    : Variable
Bit rate                         : 301 Kbps
Maximum bit rate                 : 3 878 Kbps
Width                            : 640 pixels
Height                           : 360 pixels
Display aspect ratio             : 16:9
Frame rate mode                  : Constant
Frame rate                       : 23.976 fps
Color space                      : YUV
Chroma subsampling               : 4:2:0
Bit depth                        : 8 bits
Scan type                        : Progressive
Bits/(Pixel*Frame)               : 0.055
Stream size                      : 51.1 MiB (82%)

Audio

ID                               : 2
Format                           : AAC
Format/Info                      : Advanced Audio Codec
Format profile                   : LC
Codec ID                         : 40
Duration                         : 23mn 44s
Bit rate mode                    : Variable
Bit rate                         : 64.0 Kbps
Maximum bit rate                 : 120 Kbps
Channel(s)                       : 2 channels
Channel positions                : Front: L R
Sampling rate                    : 48.0 KHz
Compression mode                 : Lossy
Stream size                      : 10.9 MiB (17%)
Encoded date                     : UTC 2011-12-22 17:30:19
Tagged date                      : UTC 2011-12-22 17:30:19

Download and Enjoy...Keep Seeding...:)